<svg xmlns="http://www.w3.org/2000/svg" xmlns:xlink="http://www.w3.org/1999/xlink" width="30" height="30" viewBox="0 0 30 30">
  <defs>
    <clipPath id="clip-_2">
      <rect width="30" height="30"/>
    </clipPath>
  </defs>
  <g id="_2" data-name="2" clip-path="url(#clip-_2)">
    <g id="_2-2" data-name="2" transform="translate(-30.46 -28.94)">
      <path id="Path_2" data-name="Path 2" d="M33.787,28.94H57.148a3.313,3.313,0,0,1,3.312,3.327v23.36a3.338,3.338,0,0,1-3.312,3.312H33.787a3.375,3.375,0,0,1-2.35-.963v-.015a3.317,3.317,0,0,1-.978-2.335V32.262a3.281,3.281,0,0,1,.978-2.35,3.384,3.384,0,0,1,2.35-.973Zm23.076,3.607H34.072V55.338H56.863Z" transform="translate(0 0)"/>
    </g>
  </g>
</svg>
