<svg xmlns="http://www.w3.org/2000/svg" xmlns:xlink="http://www.w3.org/1999/xlink" width="30" height="16" viewBox="0 0 30 16">
  <defs>
    <clipPath id="clip-_4">
      <rect width="30" height="16"/>
    </clipPath>
  </defs>
  <g id="_4" data-name="4" clip-path="url(#clip-_4)">
    <g id="_4-2" data-name="4" transform="translate(-2.39 -29.15)">
      <path id="Path_6" data-name="Path 6" d="M15.465,29.15,7.436,41.028,3.479,38.159,2.39,39.666,7.9,43.652,17,30.19Z" transform="translate(0 0)" fill-rule="evenodd"/>
      <path id="Path_7" data-name="Path 7" d="M61.087,43.27a12.925,12.925,0,0,0-4.863-4.915,10.29,10.29,0,0,0-5-1.3,9.952,9.952,0,0,0-4.959,1.383,12.316,12.316,0,0,0-4.585,4.848l-.248.446.248.446a12.334,12.334,0,0,0,4.585,4.848,9.952,9.952,0,0,0,4.959,1.383,10.269,10.269,0,0,0,5-1.3A12.925,12.925,0,0,0,61.087,44.2l.271-.467Zm-11.13-3.153a1.045,1.045,0,1,1-1.045,1.045A1.044,1.044,0,0,1,49.957,40.117Zm5.374,7.371a8.34,8.34,0,0,1-4.094,1.068,8.135,8.135,0,0,1-4.045-1.127,10.443,10.443,0,0,1-3.627-3.695,10.5,10.5,0,0,1,3.547-3.643,4.844,4.844,0,1,0,8.617.126A11,11,0,0,1,59.2,43.734,10.847,10.847,0,0,1,55.331,47.488Z" transform="translate(-28.968 -5.869)" fill-rule="evenodd"/>
    </g>
  </g>
</svg>
